<svg xmlns="http://www.w3.org/2000/svg" version="1.1" xmlns:xlink="http://www.w3.org/1999/xlink" xmlns:svgjs="http://svgjs.dev/svgjs" width="100%" height="100%" viewBox="0 0 1000 600"><rect width="1000" height="600" x="0" y="0" fill="#0a0a0a"/><g><rect width="333.3333333333333" height="333.3333333333333" rx="13.333333333333334" ry="13.333333333333334" y="239.1060304113559" fill="#b01919" transform="matrix(0.5763454487840547,0,0,0.5763454487840545,0,66.13474344054353)" x="216.88392639160156"/><path d="M364.64626661799406 480.7727044195763L343.73577268141355 480.7727044195763L343.73577268141355 330.7727036346592L364.64626661799406 330.7727036346592L364.64626661799406 401.5031566796733L399.08556720973 330.7727036346592L418.53001175592294 330.7727036346592L388.90038197124795 396.8735270258178L423.36540272772754 480.7727044195763L402.99503225076353 480.7727044195763L374.2913283968596 410.4023336809732L364.64626661799406 427.81488521241846L364.64626661799406 480.7727044195763Z " fill="#0a0a0a" transform="matrix(0.5763454487840547,0,0,0.5763454487840545,0,66.13474344054353)"/><path d="M651.2681527315945 458.0209925998566L633.5505881876721 458.0209925998566L633.5505881876721 330.9252528456687L651.2681527315945 330.9252528456687L651.2681527315945 390.8555142180996L680.4487418143889 330.9252528456687L696.9241154862281 330.9252528456687L671.8187841767589 386.932806200995L701.0211660818707 458.0209925998566L683.7612508066105 458.0209925998566L659.4404611005623 398.3958307398672L651.2681527315945 413.1495714486438L651.2681527315945 458.0209925998566ZM734.9090047851905 459.284976294257L734.9090047851905 459.284976294257Q724.2305218497393 459.284976294257 718.4336311133513 455.1225472316627Q712.6149475546463 450.9601181690684 710.3484940336525 442.87498108936956Q708.0820405126588 434.7898440096707 708.0820405126588 423.021719958357L708.0820405126588 423.021719958357L708.0820405126588 402.3185387569718Q708.0820405126588 390.24531519321664 710.4356653229215 382.2255565804695Q712.7892901331843 374.22759079003964 718.6733521588411 370.15233301671435Q724.5574141844979 366.07707524338906 734.9090047851905 366.07707524338906L734.9090047851905 366.07707524338906Q746.3502365017455 366.07707524338906 751.7766492587402 370.78432486391455Q757.1812691934176 375.49157448444004 758.9029021564802 384.36125316755977Q760.6463279418599 393.2091390283623 760.6463279418599 405.6092549268762L760.6463279418599 405.6092549268762L760.6463279418599 412.9970216924231L724.8625136969395 412.9970216924231L724.8625136969395 431.1940283273248Q724.8625136969395 436.6858195512712 725.8867763458501 440.12908547739636Q726.9110389947607 443.5941442258387 729.1774925157545 445.22860589963227Q731.4439460367482 446.8848603957431 735.0615545414113 446.8848603957431L735.0615545414113 446.8848603957431Q738.8317128022951 446.8848603957431 740.7930668108474 445.0760561434115Q742.7544208193997 443.26725189108 743.4517911335516 439.8893644319066Q744.1709542700207 436.53326979505044 744.1709542700207 431.9785699307457L744.1709542700207 431.9785699307457L744.1709542700207 426.4867787067993L760.471985363322 426.4867787067993L760.471985363322 429.9300446329245Q760.471985363322 443.5941442258387 754.6750946269341 451.4395602600478Q748.8782038905463 459.284976294257 734.9090047851905 459.284976294257ZM724.8625136969395 399.0278225870674L724.8625136969395 403.8876219638136L744.1709542700207 403.8876219638136L744.1709542700207 395.73710641716303Q744.1709542700207 390.0709726146786 743.5389624228206 386.2354358868431Q742.9069705756204 382.3998991590075 740.9456165670681 380.43854515045524Q738.9842625585159 378.47719114190295 734.7564550289699 378.47719114190295L734.7564550289699 378.47719114190295Q730.6594044333273 378.47719114190295 728.5455006685543 380.35137386118623Q726.4315969037813 382.2255565804695 725.6470553003603 386.71487797782254Q724.8625136969395 391.18240655285825 724.8625136969395 399.0278225870674L724.8625136969395 399.0278225870674ZM792.6381911035794 458.0209925998566L775.8577179192988 458.0209925998566L775.8577179192988 367.3192661154722L792.6381911035794 367.3192661154722L792.6381911035794 376.27611608786094Q797.1928909678841 372.02651573599763 802.6846821918306 369.062691900852Q808.176473415777 366.07707524338906 814.779698577903 366.07707524338906L814.779698577903 366.07707524338906Q820.2714898018494 366.07707524338906 823.1699351700432 368.888349322314Q826.0683805382372 371.7214162235562 827.2451929433686 375.9492237531022Q828.4220053484999 380.19882410496547 828.4220053484999 384.57918139073223L828.4220053484999 384.57918139073223L828.4220053484999 458.0209925998566L811.6415321642193 458.0209925998566L811.6415321642193 389.46077358979574Q811.6415321642193 384.57918139073223 810.2249987135982 381.92045706802804Q808.808465262977 379.26173274532385 804.406315154893 379.26173274532385L804.406315154893 379.26173274532385Q801.5950410759682 379.26173274532385 798.5222531292362 380.8961944191174Q795.4712580048216 382.55244891522824 792.6381911035794 384.90607372549096L792.6381911035794 384.90607372549096L792.6381911035794 458.0209925998566ZM861.525302448399 458.0209925998566L844.7448292641184 458.0209925998566L844.7448292641184 367.3192661154722L861.525302448399 367.3192661154722L861.525302448399 376.27611608786094Q866.0800023127038 372.02651573599763 871.5717935366501 369.062691900852Q877.0635847605965 366.07707524338906 883.6450171004053 366.07707524338906L883.6450171004053 366.07707524338906Q889.1368083243517 366.07707524338906 892.0570465148628 368.888349322314Q894.9554918830568 371.7214162235562 896.1323042881882 375.9492237531022Q897.3091166933195 380.19882410496547 897.3091166933195 384.57918139073223L897.3091166933195 384.57918139073223L897.3091166933195 458.0209925998566L880.5068506867216 458.0209925998566L880.5068506867216 389.46077358979574Q880.5068506867216 384.57918139073223 879.1121100584178 381.92045706802804Q877.6955766077967 379.26173274532385 873.2934264997127 379.26173274532385L873.2934264997127 379.26173274532385Q870.4821524207878 379.26173274532385 867.4093644740558 380.8961944191174Q864.3583693496412 382.55244891522824 861.525302448399 384.90607372549096L861.525302448399 384.90607372549096L861.525302448399 458.0209925998566ZM914.2421396338209 480.77269909906306L912.2154071583168 480.77269909906306L912.2154071583168 467.914933931887Q918.3391902294634 467.914933931887 921.9350059118092 467.34832055163855Q925.5526144164724 466.80349999370736 927.1216976233142 465.32158807613456Q928.690780830156 463.81788333624445 928.690780830156 461.1591590135402L928.690780830156 461.1591590135402Q928.690780830156 459.74262556291916 927.5793468919765 454.88282618617296Q926.4897057761141 450.0230268094267 925.2257220817137 444.5312355854803L925.2257220817137 444.5312355854803L907.0287154468119 367.3192661154722L923.9835312096305 367.3192661154722L936.2093045296064 435.1167363444294L947.9774285809201 367.3192661154722L964.9322443437387 367.3192661154722L943.2701789603946 463.03334173282354Q941.8754383320909 469.63656689494957 938.105280071207 473.47210362278514Q934.3351218103231 477.32943317293797 928.4510597846663 479.0510661360005Q922.5669977590094 480.77269909906306 914.2421396338209 480.77269909906306L914.2421396338209 480.77269909906306ZM1027.543022861191 458.0209925998566L1012.4841826399729 458.0209925998566L1012.4841826399729 330.9252528456687L1024.557406203728 330.9252528456687L1060.64631996109 415.35064650268583L1060.64631996109 330.9252528456687L1075.4000606698667 330.9252528456687L1075.4000606698667 458.0209925998566L1064.0895858872152 458.0209925998566L1027.543022861191 371.24197413257673L1027.543022861191 458.0209925998566ZM1118.0704067670374 459.284976294257L1118.0704067670374 459.284976294257Q1111.0095323362493 459.284976294257 1106.694553517434 456.6044591492355Q1102.379574698619 453.9457348265313 1100.4182206900668 449.0859354497851Q1098.4568666815146 444.2043432507216 1098.4568666815146 437.6229109109128L1098.4568666815146 437.6229109109128L1098.4568666815146 378.47719114190295L1088.8898176842429 378.47719114190295L1088.8898176842429 367.3192661154722L1098.4568666815146 367.3192661154722L1098.4568666815146 340.8191941776991L1115.2591326881125 340.8191941776991L1115.2591326881125 367.3192661154722L1129.838530818351 367.3192661154722L1129.838530818351 378.47719114190295L1115.2591326881125 378.47719114190295L1115.2591326881125 436.53326979505044Q1115.2591326881125 441.8507184404589 1116.980765651175 444.1389647837699Q1118.7023986142376 446.4054183047636 1123.5621979909838 446.4054183047636L1123.5621979909838 446.4054183047636Q1124.8261816853842 446.4054183047636 1126.4606433591778 446.2528685485429Q1128.1168978552885 446.1003187923222 1129.6859810621304 445.9477690361014L1129.6859810621304 445.9477690361014L1129.6859810621304 458.32609211229806Q1126.5478146484468 458.8055342032775 1123.8890903257425 459.0452552487672Q1121.208573180721 459.284976294257 1118.0704067670374 459.284976294257ZM1167.1914282701134 459.284976294257L1167.1914282701134 459.284976294257Q1157.1449371818624 459.284976294257 1151.3480464454744 455.1879256986144Q1145.5293628867694 451.1126679252891 1143.110359609555 443.5941442258387Q1140.6695635100232 436.053827704071 1140.6695635100232 425.8547868595992L1140.6695635100232 425.8547868595992L1140.6695635100232 399.4854718557296Q1140.6695635100232 389.2864310112577 1143.110359609555 381.76790731180733Q1145.5293628867694 374.22759079003964 1151.3480464454744 370.15233301671435Q1157.1449371818624 366.07707524338906 1167.1914282701134 366.07707524338906L1167.1914282701134 366.07707524338906Q1177.2379193583647 366.07707524338906 1182.9476388054834 370.15233301671435Q1188.6791510749194 374.22759079003964 1191.1199471744512 381.76790731180733Q1193.5389504516656 389.2864310112577 1193.5389504516656 399.4854718557296L1193.5389504516656 399.4854718557296L1193.5389504516656 425.8547868595992Q1193.5389504516656 436.053827704071 1191.1199471744512 443.5941442258387Q1188.6791510749194 451.1126679252891 1182.9476388054834 455.1879256986144Q1177.2379193583647 459.284976294257 1167.1914282701134 459.284976294257ZM1167.1914282701134 446.8848603957431L1167.1914282701134 446.8848603957431Q1172.0512276468596 446.8848603957431 1174.0125816554119 444.0517934945009Q1175.9739356639643 441.240519415576 1176.3662064656746 436.5986482620022Q1176.7584772673852 431.9785699307457 1176.7584772673852 426.94442797546156L1176.7584772673852 426.94442797546156L1176.7584772673852 398.548380496088Q1176.7584772673852 393.38348160690026 1176.3662064656746 388.82878174259554Q1175.9739356639643 384.2740818782908 1174.0125816554119 381.37563651009685Q1172.0512276468596 378.47719114190295 1167.1914282701134 378.47719114190295L1167.1914282701134 378.47719114190295Q1162.3316288933672 378.47719114190295 1160.283103595546 381.37563651009685Q1158.2345782977245 384.2740818782908 1157.8423074960142 388.82878174259554Q1157.450036694304 393.38348160690026 1157.450036694304 398.548380496088L1157.450036694304 398.548380496088L1157.450036694304 426.94442797546156Q1157.450036694304 431.9785699307457 1157.8423074960142 436.5986482620022Q1158.2345782977245 441.240519415576 1160.283103595546 444.0517934945009Q1162.3316288933672 446.8848603957431 1167.1914282701134 446.8848603957431ZM1250.6579377451715 458.0209925998566L1205.4814170815175 458.0209925998566L1205.4814170815175 446.7323106395223L1233.245472713691 379.8719317702068L1208.2926911604422 379.8719317702068L1208.2926911604422 367.3192661154722L1251.289929592372 367.3192661154722L1251.289929592372 376.42866584408165L1223.3515313816606 445.3157771889012L1250.6579377451715 445.3157771889012L1250.6579377451715 458.0209925998566ZM1279.6859770717454 459.284976294257L1279.6859770717454 459.284976294257Q1274.3467356040198 459.284976294257 1270.2714778306943 456.21218834752506Q1266.1962200573691 453.1611932231104 1263.8425952471064 448.3667723133159Q1261.4889704368436 443.5941442258387 1261.4889704368436 438.254902758113L1261.4889704368436 438.254902758113Q1261.4889704368436 429.7774948767037 1264.322037338086 423.98060414031585Q1267.1333114170109 418.1619205816108 1272.080282083026 414.17383409755445Q1277.0272527490413 410.1639547911809 1283.5433066218982 407.178338133718Q1290.037567672438 404.1927214762551 1297.2727846817643 401.38144739733013L1297.2727846817643 401.38144739733013L1297.2727846817643 394.9525648137421Q1297.2727846817643 389.46077358979574 1296.640792834564 385.8431650851326Q1296.0088009873637 382.2255565804695 1294.0474469788116 380.43854515045524Q1292.0860929702594 378.62974089812366 1288.1633849531547 378.62974089812366L1288.1633849531547 378.62974089812366Q1284.7201190270296 378.62974089812366 1282.5844224399393 380.19882410496547Q1280.4705186751664 381.76790731180733 1279.5334273155247 384.66635268000124Q1278.596335955883 387.5647980481952 1278.596335955883 391.4875060652997L1278.596335955883 391.4875060652997L1278.596335955883 396.04220592960445L1261.9684125278231 395.4102140824043Q1262.2735120402647 380.35137386118623 1268.8549443800732 373.203328141129Q1275.4581695421994 366.07707524338906 1289.253026069017 366.07707524338906L1289.253026069017 366.07707524338906Q1302.7645759057107 366.07707524338906 1308.4089168858777 373.44304918661874Q1314.0532578660448 380.83081595216566 1314.0532578660448 394.7782222352041L1314.0532578660448 394.7782222352041L1314.0532578660448 436.2063774602918Q1314.0532578660448 440.455977812155 1314.2929789115346 444.3786858292596Q1314.532699957024 448.3013938463642 1314.9249707587348 451.6574884832203Q1315.3172415604452 455.03537594239367 1315.6223410728865 458.0209925998566L1315.6223410728865 458.0209925998566L1300.2366085169099 458.0209925998566Q1299.7789592482477 455.5148180333731 1299.0597961117785 451.6574884832203Q1298.3624257976267 447.8219517553847 1298.0573262851851 444.6837853417011L1298.0573262851851 444.6837853417011Q1296.4882430783434 450.0230268094267 1291.9989216809902 454.6431051406832Q1287.5313931059545 459.284976294257 1279.6859770717454 459.284976294257ZM1286.2892022338713 444.8363350979218L1286.2892022338713 444.8363350979218Q1288.7953768003547 444.8363350979218 1290.996451854397 443.41980164730074Q1293.1757340861218 442.02506101899684 1294.9191598715015 440.2162567666653Q1296.640792834564 438.4074525143338 1297.2727846817643 437.3178113984714L1297.2727846817643 437.3178113984714L1297.2727846817643 411.580488241802Q1293.3500766646596 413.781563295844 1289.885017916217 415.9608455275688Q1286.4417519900921 418.1619205816108 1283.8484061343395 420.6027166811425Q1281.2550602785873 423.021719958357 1279.7731483610144 426.0945079050889Q1278.2694436211243 429.1455030295036 1278.2694436211243 433.0682110466081L1278.2694436211243 433.0682110466081Q1278.2694436211243 438.5600022705545 1280.3179689189458 441.69816868423817Q1282.3664942167668 444.8363350979218 1286.2892022338713 444.8363350979218ZM1347.3091047221646 457.8684428436358L1330.5286315378842 457.8684428436358L1330.5286315378842 330.772703089448L1347.3091047221646 330.772703089448L1347.3091047221646 406.5463462865178L1371.8042370067508 367.3192661154722L1389.3692517944526 367.3192661154722L1368.034078745867 402.79798084795124L1388.7372599472521 458.0209925998566L1371.9567867629717 458.0209925998566L1355.001971000153 411.580488241802L1347.3091047221646 423.19606253689494L1347.3091047221646 457.8684428436358ZM1414.779682616363 458.0209925998566L1397.9992094320826 458.0209925998566L1397.9992094320826 330.9252528456687L1414.779682616363 330.9252528456687L1414.779682616363 376.7337653565231Q1419.334382480668 372.35340807075636 1424.978723460835 369.21524165707274Q1430.6448572633194 366.07707524338906 1437.5313891155695 366.07707524338906L1437.5313891155695 366.07707524338906Q1442.8706305832955 366.07707524338906 1445.7690759514892 368.888349322314Q1448.6893141420003 371.7214162235562 1449.8661265471317 375.9492237531022Q1451.042938952263 380.19882410496547 1451.042938952263 384.57918139073223L1451.042938952263 384.57918139073223L1451.042938952263 458.0209925998566L1434.2406729456652 458.0209925998566L1434.2406729456652 389.46077358979574Q1434.2406729456652 384.57918139073223 1432.8241394950442 381.92045706802804Q1431.4293988667403 379.26173274532385 1427.0272487586562 379.26173274532385L1427.0272487586562 379.26173274532385Q1424.0416321011933 379.26173274532385 1420.8380872205578 380.98336570838643Q1417.6127495176054 382.70499867144895 1414.779682616363 385.2111732379324L1414.779682616363 385.2111732379324L1414.779682616363 458.0209925998566ZM1492.4493013550336 459.284976294257L1492.4493013550336 459.284976294257Q1481.7926112418993 459.284976294257 1475.9739276831945 455.1225472316627Q1470.1770369468065 450.9601181690684 1467.9105834258128 442.87498108936956Q1465.6223370825016 434.7898440096707 1465.6223370825016 423.021719958357L1465.6223370825016 423.021719958357L1465.6223370825016 402.3185387569718Q1465.6223370825016 390.24531519321664 1467.9759618927644 382.2255565804695Q1470.3295867030272 374.22759079003964 1476.213648728684 370.15233301671435Q1482.097710754341 366.07707524338906 1492.4493013550336 366.07707524338906L1492.4493013550336 366.07707524338906Q1503.9123258939057 366.07707524338906 1509.3169458285831 370.78432486391455Q1514.7433585855777 375.49157448444004 1516.4649915486402 384.36125316755977Q1518.186624511703 393.2091390283623 1518.186624511703 405.6092549268762L1518.186624511703 405.6092549268762L1518.186624511703 412.9970216924231L1482.4246030890997 412.9970216924231L1482.4246030890997 431.1940283273248Q1482.4246030890997 436.6858195512712 1483.427072915693 440.12908547739636Q1484.4513355646038 443.5941442258387 1486.7395819079147 445.22860589963227Q1489.0060354289083 446.8848603957431 1492.6236439335714 446.8848603957431L1492.6236439335714 446.8848603957431Q1496.3720093721379 446.8848603957431 1498.3333633806903 445.0760561434115Q1500.2947173892426 443.26725189108 1501.0138805257118 439.8893644319066Q1501.7112508398639 436.53326979505044 1501.7112508398639 431.9785699307457L1501.7112508398639 431.9785699307457L1501.7112508398639 426.4867787067993L1518.0340747554822 426.4867787067993L1518.0340747554822 429.9300446329245Q1518.0340747554822 443.5941442258387 1512.2371840190942 451.4395602600478Q1506.418500460389 459.284976294257 1492.4493013550336 459.284976294257ZM1482.4246030890997 399.0278225870674L1482.4246030890997 403.8876219638136L1501.7112508398639 403.8876219638136L1501.7112508398639 395.73710641716303Q1501.7112508398639 390.0709726146786 1501.0792589926634 386.2354358868431Q1500.4690599677804 382.3998991590075 1498.5077059592284 380.43854515045524Q1496.5463519506761 378.47719114190295 1492.2967515988128 378.47719114190295L1492.2967515988128 378.47719114190295Q1488.2214938254876 378.47719114190295 1486.1075900607145 380.35137386118623Q1483.9936862959414 382.2255565804695 1483.2091446925206 386.71487797782254Q1482.4246030890997 391.18240655285825 1482.4246030890997 399.0278225870674L1482.4246030890997 399.0278225870674Z " fill="#b01919" transform="matrix(0.5763454487840547,0,0,0.5763454487840545,0,66.13474344054353)"/></g></svg>